Coordinates
version=1
nRows=8
nColumns=36
inDegrees=yes

Units are S.I. units (second, meters, Newtons, ...)
If the header above contains a line with 'inDegrees', this indicates whether rotational values are in degrees (yes) or radians (no).

endheader
time	pelvis_tilt	pelvis_list	pelvis_rotation	pelvis_tx	pelvis_ty	pelvis_tz	hip_flexion_r	hip_adduction_r	hip_rotation_r	knee_angle_r	knee_angle_r_beta	ankle_angle_r	subtalar_angle_r	mtp_angle_r	hip_flexion_l	hip_adduction_l	hip_rotation_l	knee_angle_l	knee_angle_l_beta	ankle_angle_l	subtalar_angle_l	mtp_angle_l	lumbar_extension	lumbar_bending	lumbar_rotation	arm_flex_r	arm_add_r	arm_rot_r	elbow_flex_r	pro_sup_r	arm_flex_l	arm_add_l	arm_rot_l	elbow_flex_l	pro_sup_l
      0.00000000	     -0.60160705	     -1.36681782	     -1.26174285	     -0.93649684	      1.24985110	     -0.02914512	     -4.54827830	      2.13839297	     -0.90559809	      3.94663185	      0.06888172	      0.33483813	    -15.83475654	     -4.82230541	     -4.59355880	     -5.26561831	     -2.17383746	      6.20380642	      0.10827685	     10.30870473	     -0.76521451	     -4.82230541	     -5.80527732	      4.21520187	     -1.10273010	     13.44318823	    -10.28427524	     33.49180635	     25.66822597	     72.28148693	      9.08769744	     -9.55579240	     32.68317033	     31.27064029	     63.77430963
      0.00416670	     -2.19314416	     -0.24854829	     -1.37593501	     -0.93426317	      1.24958409	     -0.02912101	     -2.45931108	      1.15130753	     -1.36438077	      4.47325187	      0.07807297	      4.54738549	    -12.64167543	     -6.23665916	     -2.69757977	     -3.52196635	     -1.18061036	      6.02167225	      0.10509801	     10.04457737	      0.83176582	     -6.23665916	     -3.54805961	      3.10225219	     -0.61241724	     13.12448658	    -10.49568613	     37.77317548	     25.17330944	     72.21621008	      9.51273849	     -9.91348766	     34.99067606	     31.11078395	     65.55616351
      0.00833330	     -2.77757124	      0.93479134	     -1.71179701	     -0.93365036	      1.24751116	     -0.02698451	     -2.25091297	     -0.05977743	     -2.65187434	      3.56339613	      0.06219300	      5.40296712	    -10.75940633	     -6.40932644	     -2.46438998	     -2.41704054	     -2.03132732	      5.37924905	      0.09388561	      9.89566648	      1.66819183	     -6.40932644	     -2.64686052	      1.51459978	     -0.11840018	     13.45653974	    -10.62030934	     42.14760871	     25.06743356	     73.05084600	     10.35559561	    -11.59105474	     39.92049290	     31.70389401	     66.82338227
      0.01250000	     -2.38677009	      1.49699897	     -1.82506546	     -0.93215717	      1.25085482	     -0.02646685	     -3.20239933	     -0.71220365	     -3.31834457	      2.79409597	      0.04876617	      5.72194345	     -9.61496292	     -6.59619600	     -3.56049637	     -1.70445822	     -2.04065729	      4.41736203	      0.07709751	      9.16362798	      1.26135402	     -6.59619600	     -2.95110601	      0.78561831	      0.37775257	     13.52711647	    -10.75210034	     45.20325849	     24.47492521	     72.52803325	     11.14795109	    -12.34032695	     43.76124321	     31.27215695	     67.20324418
      0.01666670	     -2.14985169	      1.73902075	     -1.91481244	     -0.93053309	      1.25161470	     -0.02514823	     -3.89672151	     -0.90724629	     -3.59762578	      2.13791066	      0.03731358	      5.74326937	     -9.15814142	     -6.72305241	     -4.30309941	     -1.38077624	     -2.12570377	      3.68701583	      0.06435057	      8.61689116	      1.02428410	     -6.72305241	     -3.16674914	      0.52446285	      0.76724756	     13.46846867	    -10.71444301	     46.54780702	     23.94601132	     71.47429887	     11.64802953	    -12.59303153	     46.56760571	     30.72250584	     66.96049969
      0.02083330	     -1.89017149	      1.86119446	     -1.88060026	     -0.93181720	      1.25221485	     -0.02555423	     -4.45496295	     -1.02025583	     -3.76780767	      1.67727789	      0.02927402	      5.82499286	     -8.62901478	     -6.84750300	     -4.77126190	     -1.21145738	     -1.95647170	      3.20605039	      0.05595614	      8.09402889	      0.44667614	     -6.84750300	     -3.55997574	      0.40692029	      0.86050322	     13.44784178	    -10.62973243	     46.28268231	     23.82011937	     70.18897430	     11.80636001	    -12.56249709	     46.81470537	     30.43581233	     66.22000148
      0.02500000	     -1.85253982	      1.94809851	     -1.88758547	     -0.93430213	      1.25268356	     -0.02650117	     -4.56686969	     -1.12951325	     -3.41785167	      1.39362224	      0.02432330	      5.68550709	     -8.74429435	     -6.99306326	     -4.75190673	     -1.08589874	     -2.16612777	      2.99946724	      0.05235058	      7.94613466	      0.52041019	     -6.99306326	     -3.71859951	      0.30483422	      1.18399774	     13.62763473	    -10.60315103	     46.89620930	     23.31937994	     68.87860494	     12.59990841	    -12.62273385	     49.48308938	     29.97565778	     65.63037804
      0.02916670	     -1.66685289	      1.89562721	     -1.77344580	     -0.93389268	      1.24831416	     -0.02552734	     -4.87090760	     -1.04452420	     -3.20488758	      1.16255151	      0.02029035	      5.85229590	     -8.42441494	     -7.02167234	     -4.90531278	     -1.12879658	     -2.03132755	      2.83829990	      0.04953768	      7.82196726	      0.28444235	     -7.02167234	     -4.05857418	      0.37828258	      1.30047689	     13.61963441	    -10.73367905	     46.57505282	     23.57425457	     67.70305235	     13.17893104	    -12.60024103	     51.09753249	     29.54916114	     64.58683398
